<?xml version="1.0" encoding="UTF-8" standalone="no"?>
<!-- Created with Inkscape (http://www.inkscape.org/) -->
<svg
   xmlns:dc="http://purl.org/dc/elements/1.1/"
   xmlns:cc="http://creativecommons.org/ns#"
   xmlns:rdf="http://www.w3.org/1999/02/22-rdf-syntax-ns#"
   xmlns:svg="http://www.w3.org/2000/svg"
   xmlns="http://www.w3.org/2000/svg"
   xmlns:xlink="http://www.w3.org/1999/xlink"
   xmlns:sodipodi="http://sodipodi.sourceforge.net/DTD/sodipodi-0.dtd"
   xmlns:inkscape="http://www.inkscape.org/namespaces/inkscape"
   height="529.25684"
   id="svg1"
   inkscape:version="0.45+devel"
   sodipodi:docbase="/home/tuomas/Desktop/Kuvat"
   sodipodi:docname="pen_pencil_darkon_01.svg"
   sodipodi:version="0.32"
   width="586.13324"
   inkscape:output_extension="org.inkscape.output.svg.inkscape"
   version="1.0">
  <metadata
     id="metadata3">
    <rdf:RDF>
      <cc:Work
         rdf:about="">
        <dc:title>Pen &amp; Pencil</dc:title>
        <dc:description>:)</dc:description>
        <dc:subject>
          <rdf:Bag>
            <rdf:li>office</rdf:li>
          </rdf:Bag>
        </dc:subject>
        <dc:publisher>
          <cc:Agent
             rdf:about="http://www.openclipart.org">
            <dc:title>Darkon</dc:title>
          </cc:Agent>
        </dc:publisher>
        <dc:creator>
          <cc:Agent>
            <dc:title>Darkon</dc:title>
          </cc:Agent>
        </dc:creator>
        <dc:rights>
          <cc:Agent>
            <dc:title>Darkon</dc:title>
          </cc:Agent>
        </dc:rights>
        <dc:date />
        <dc:format>image/svg+xml</dc:format>
        <dc:type
           rdf:resource="http://purl.org/dc/dcmitype/StillImage" />
        <cc:license
           rdf:resource="http://web.resource.org/cc/PublicDomain" />
        <dc:language>en</dc:language>
      </cc:Work>
      <cc:License
         rdf:about="http://web.resource.org/cc/PublicDomain">
        <cc:permits
           rdf:resource="http://web.resource.org/cc/Reproduction" />
        <cc:permits
           rdf:resource="http://web.resource.org/cc/Distribution" />
        <cc:permits
           rdf:resource="http://web.resource.org/cc/DerivativeWorks" />
      </cc:License>
    </rdf:RDF>
  </metadata>
  <defs
     id="defs3">
    <linearGradient
       id="linearGradient879">
      <stop
         id="stop880"
         offset="0.0000000"
         style="stop-color:#ffecd5;stop-opacity:1.0000000;" />
      <stop
         id="stop881"
         offset="1.0000000"
         style="stop-color:#af9143;stop-opacity:1.0000000;" />
    </linearGradient>
    <linearGradient
       id="linearGradient875">
      <stop
         id="stop876"
         offset="0.0000000"
         style="stop-color:#efc65c;stop-opacity:1.0000000;" />
      <stop
         id="stop877"
         offset="1.0000000"
         style="stop-color:#af9143;stop-opacity:1.0000000;" />
    </linearGradient>
    <linearGradient
       id="linearGradient868">
      <stop
         id="stop869"
         offset="0.0000000"
         style="stop-color:#ffe8da;stop-opacity:1.0000000;" />
      <stop
         id="stop870"
         offset="1.0000000"
         style="stop-color:#ffc5a5;stop-opacity:1.0000000;" />
    </linearGradient>
    <linearGradient
       id="linearGradient858">
      <stop
         id="stop859"
         offset="0.0000000"
         style="stop-color:#fff48f;stop-opacity:1.0000000;" />
      <stop
         id="stop861"
         offset="1.0000000"
         style="stop-color:#fffde5;stop-opacity:1.0000000;" />
    </linearGradient>
    <linearGradient
       id="linearGradient850">
      <stop
         id="stop851"
         offset="0.0000000"
         style="stop-color:#000000;stop-opacity:1.0000000;" />
      <stop
         id="stop853"
         offset="0.0099999998"
         style="stop-color:#000000;stop-opacity:1.0000000;" />
      <stop
         id="stop852"
         offset="1.0000000"
         style="stop-color:#ffecd5;stop-opacity:1.0000000;" />
    </linearGradient>
    <linearGradient
       id="linearGradient1885">
      <stop
         id="stop1886"
         offset="0.0000000"
         style="stop-color:#8a1e1e;stop-opacity:1.0000000;" />
      <stop
         id="stop1887"
         offset="1"
         style="stop-color:#fff;stop-opacity:1;" />
    </linearGradient>
    <linearGradient
       id="linearGradient1881">
      <stop
         id="stop1882"
         offset="0"
         style="stop-color:#000;stop-opacity:1;" />
      <stop
         id="stop1883"
         offset="1"
         style="stop-color:#fff;stop-opacity:1;" />
    </linearGradient>
    <linearGradient
       gradientTransform="matrix(0.462453,0,0,0.511499,-11.669289,-39.523791)"
       gradientUnits="userSpaceOnUse"
       id="linearGradient1884"
       x1="1151.4917"
       x2="1136.2676"
       xlink:href="#linearGradient858"
       y1="911.724"
       y2="813.422" />
    <radialGradient
       cx="1216.2439"
       cy="821.33179"
       fx="1216.2439"
       fy="821.33179"
       gradientTransform="matrix(0.46663,0,0,0.50692,-11.669289,-39.523791)"
       gradientUnits="userSpaceOnUse"
       id="radialGradient867"
       r="56.314198"
       xlink:href="#linearGradient868" />
    <linearGradient
       gradientTransform="matrix(0.795803,0,0,0.29724,-11.669289,-39.523791)"
       gradientUnits="userSpaceOnUse"
       id="linearGradient874"
       x1="426.94217"
       x2="483.33511"
       xlink:href="#linearGradient875"
       y1="1591.2252"
       y2="1690.0869" />
    <linearGradient
       gradientTransform="matrix(0.73964,0,0,0.31981,-11.669289,-39.523791)"
       gradientUnits="userSpaceOnUse"
       id="linearGradient878"
       x1="239.50841"
       x2="289.33801"
       xlink:href="#linearGradient879"
       y1="1632.9742"
       y2="1742.4102" />
  </defs>
  <sodipodi:namedview
     bordercolor="#666666"
     borderopacity="1.0"
     id="base"
     inkscape:current-layer="svg1"
     inkscape:cx="494.12135"
     inkscape:cy="321.78313"
     inkscape:pageopacity="0.0"
     inkscape:pageshadow="2"
     inkscape:window-height="707"
     inkscape:window-width="1014"
     inkscape:window-x="0"
     inkscape:window-y="25"
     inkscape:zoom="0.43415836"
     pagecolor="#ffffff"
     showgrid="false" />
  <path
     d="M 164.54059,529.25686 L 504.29485,445.75578 C 504.29485,445.75578 530.20024,441.55491 537.90187,438.0542 C 548.05397,437.004 564.68241,434.90357 571.68388,430.7027 C 581.66094,424.75142 575.35963,383.44287 556.80574,379.24199 C 540.70242,377.14155 528.44989,386.5935 523.54885,387.29366 C 520.04814,387.29366 495.54303,391.49453 488.71665,394.99524 C 483.81562,399.19611 148.97115,476.91221 148.97115,476.91221 C 148.97115,476.91221 110.21562,506.11326 86.410681,513.81484 C 93.424321,518.66977 97.210161,521.47761 99.140711,523.61691 C 110.72527,522.90945 143.07998,524.06951 164.54059,529.25686 z"
     id="path872"
     sodipodi:nodetypes="ccccccccccc"
     style="fill:#000000;fill-opacity:0.07000002;fill-rule:evenodd;stroke:none;stroke-width:12.5;stroke-linecap:butt;stroke-linejoin:miter;stroke-opacity:1" />
  <path
     d="M 170.00962,514.66884 L 509.93894,430.99271 C 511.16418,430.99271 535.66929,426.79184 543.37092,423.29111 C 553.52302,422.24089 571.55174,420.31549 578.5532,416.11462 C 588.53026,410.16339 581.52884,366.92942 562.79991,360.62811 C 543.89599,360.97818 533.21878,368.50474 528.31774,369.20488 C 524.81703,369.20488 502.76244,373.75584 494.01066,376.73145 C 485.60892,378.83188 154.26515,458.29835 154.26515,458.29835 C 154.26515,458.29835 121.11078,484.87385 87.153741,496.95134 C 94.167371,501.80627 102.32912,507.23967 104.25967,509.37896 C 115.84423,508.6715 148.54901,509.48149 170.00962,514.66884 z"
     id="path871"
     sodipodi:nodetypes="ccccccccccc"
     style="fill:none;fill-opacity:0.75;fill-rule:evenodd;stroke:#000000;stroke-width:6.07947874;stroke-linecap:butt;stroke-linejoin:miter;stroke-opacity:1" />
  <path
     d="M 21.673386,387.39791 C 26.204452,390.62991 38.766025,383.68874 71.508779,294.51387 C 104.64125,195.2909 96.351061,196.40104 96.703631,193.29597"
     id="path1910"
     sodipodi:nodetypes="ccc"
     style="fill:none;fill-opacity:0.75;fill-rule:evenodd;stroke:#000000;stroke-width:7.58078575" />
  <path
     d="M 9.333843,385.2122 C 3.770486,385.05242 -3.580451,376.48607 20.868749,279.6892 C 41.597082,212.448 54.933645,183.98448 63.504075,179.03561"
     id="path1911"
     sodipodi:nodetypes="ccc"
     style="fill:none;fill-opacity:0.75;fill-rule:evenodd;stroke:#000000;stroke-width:7.58078575" />
  <path
     d="M 61.098557,188.17397 C 50.441172,185.48849 55.216384,168.3695 65.610454,168.93134"
     id="path1914"
     sodipodi:nodetypes="cc"
     style="fill:none;fill-opacity:0.75;fill-rule:evenodd;stroke:#000000;stroke-width:7.58078575" />
  <path
     d="M 62.696735,183.17532 C 40.283969,218.2592 6.219001,327.35698 7.726977,380.26962 C 7.124219,382.56234 23.90338,387.47479 24.81453,385.7809 C 55.252219,342.8065 90.613651,235.57098 95.663701,193.6012 C 79.388571,182.92263 62.696735,183.17532 62.696735,183.17532 z"
     id="path1905"
     sodipodi:nodetypes="ccccc"
     style="fill:#8c9fbd;fill-rule:evenodd;stroke:#000000;stroke-width:0.60646286pt" />
  <path
     d="M 95.724441,198.46673 C 102.72739,199.55338 110.42806,190.34042 101.75677,179.82847"
     id="path1912"
     sodipodi:nodetypes="cc"
     style="fill:none;fill-opacity:0.75;fill-rule:evenodd;stroke:#000000;stroke-width:7.58078575" />
  <path
     d="M 60.642761,170.61894 C 61.061696,139.90588 81.061251,89.292999 83.772441,81.224129 C 86.483641,73.155259 118.04311,-2.1015612 138.73417,4.1600158 C 159.42524,10.421593 154.4955,53.355129 134.67961,113.70033 C 114.86372,174.04552 103.50056,184.1148 103.50056,184.1148"
     id="path1915"
     sodipodi:nodetypes="ccccc"
     style="fill:none;fill-opacity:0.75;fill-rule:evenodd;stroke:#000000;stroke-width:7.58078575" />
  <path
     d="M 138.33398,8.0324388 C 111.66175,0.2830628 65.119758,124.26158 64.255523,170.49659 C 62.632891,176.91065 73.028513,176.19072 83.686911,178.93976 C 94.637921,181.7871 100.3762,188.39817 101.85857,182.51135 C 128.81311,137.64194 166.51352,17.098835 138.33398,8.0324388 z"
     id="path1903"
     sodipodi:nodetypes="ccccc"
     style="fill:#8c9fbd;fill-rule:evenodd;stroke:#000000;stroke-width:0.60646286pt" />
  <path
     d="M 59.342444,177.83984 C 56.325091,187.9001 67.596425,184.54666 78.870811,187.71969 C 90.145181,190.89273 99.009441,198.44541 101.42419,191.25882 C 103.83893,184.07223 92.427071,175.42149 83.249901,173.56836 C 74.072729,171.71521 61.802541,169.43805 59.342444,177.83984 z"
     id="path1904"
     sodipodi:nodetypes="ccccc"
     style="fill:#fae472;fill-rule:evenodd;stroke:#000000;stroke-width:3.79039288" />
  <path
     d="M 16.687349,365.955 C 30.693786,281.78381 50.69832,229.10034 58.613388,209.65561 C 65.847316,189.33077 48.06504,263.51639 44.427464,274.3423 L 16.687349,365.955 z"
     id="path1906"
     sodipodi:nodetypes="cccc"
     style="fill:#ffffff;fill-opacity:0.54166667;fill-rule:evenodd;stroke:none;stroke-width:1pt;stroke-linecap:butt;stroke-linejoin:miter;stroke-opacity:1" />
  <path
     d="M 73.835152,167.51399 C 84.134791,105.84951 104.55103,58.655559 110.42635,50.860929 C 116.30166,43.066289 107.43003,79.160489 107.43003,79.160489 L 73.835152,167.51399 z"
     id="path1907"
     style="fill:#ffffff;fill-opacity:0.54166667;fill-rule:evenodd;stroke:none;stroke-width:1pt;stroke-linecap:butt;stroke-linejoin:miter;stroke-opacity:1" />
  <path
     d="M 299.94538,263.471 C 297.35308,263.25642 294.70896,263.34862 292.11145,263.31995 C 272.02215,262.96277 251.9801,262.98202 231.88798,263.46392 C 192.68901,264.56825 152.69417,265.46998 114.1001,273.03303 C 112.77643,273.33751 104.61517,274.33084 103.89909,276.1795 C 103.4876,277.24181 106.32133,275.12851 106.5403,274.01053 C 106.78343,272.76926 104.00685,270.36441 105.26973,270.43501 C 117.85293,271.13847 131.39844,275.19142 143.96187,276.92202 C 204.33162,284.94224 265.72741,288.60395 325.6419,299.57595 C 395.91249,315.77859 293.07298,330.22293 279.22528,331.44441 C 234.84742,334.79496 188.16069,332.50829 144.38416,341.14264 C 143.68233,341.35918 144.4476,335.49258 150.24368,338.34115 C 161.67275,343.95813 173.5189,348.76155 185.16275,353.90926 C 194.51942,358.10677 231.44639,369.6198 227.03889,384.67776 C 217.38622,396.81977 192.49635,395.4674 178.56512,396.19682 C 160.89137,396.96015 143.20596,397.01328 125.51927,397.10393 C 118.05068,397.1721 110.55269,397.18314 103.12254,398.03213 C 97.089901,398.7676 91.100021,399.3515 85.030551,399.70299 C 78.566971,400.07265 72.107583,400.60253 65.667237,401.26387 C 60.030597,401.92749 54.42683,402.7673 48.761004,403.16215 C 44.268298,403.43066 39.78461,403.81629 35.286221,403.98668 C 31.192876,404.11707 27.100786,404.08379 23.006476,404.02567 C 19.574454,403.97559 16.145876,403.86832 12.726603,404.24627 L 10.143987,393.68366 C 14.554179,393.26828 18.941725,393.28826 23.365217,393.34763 C 27.019999,393.39527 30.673683,393.42983 34.32778,393.32323 C 38.563782,393.17615 42.78741,392.82529 47.019335,392.60114 C 52.409961,392.26006 57.740379,391.41878 63.105714,390.83139 C 69.888754,390.1764 76.685171,389.63786 83.486911,389.2217 C 89.136691,388.87435 94.706881,388.24502 100.3264,387.59163 C 108.72435,386.71481 117.17683,386.81343 125.60895,386.88531 C 142.81666,387.09091 160.01805,387.26053 177.21361,386.43206 C 186.35669,385.88223 195.64751,385.31969 204.62896,383.40858 C 205.29352,383.26718 211.11706,381.33201 211.23532,381.89322 C 212.87515,384.96595 206.43495,376.73499 203.48077,374.89012 C 195.06779,369.63625 185.93834,365.55336 176.93202,361.44819 C 171.9909,359.25838 105.24356,337.26064 140.82865,331.42482 C 186.08065,326.42866 231.97971,327.64103 277.36491,323.63545 C 285.66631,322.76129 359.00814,318.81563 321.45301,307.86713 C 262.85291,294.45561 201.26421,291.15026 141.58668,284.94099 C 130.3544,283.7861 52.176285,274.24276 110.15996,263.85922 C 150.09794,257.68717 190.84917,256.44582 231.16758,254.68664 C 251.48056,253.82379 271.78392,253.09187 292.11145,252.73044 C 294.70896,252.70178 297.35308,252.79397 299.94538,252.5794 L 299.94538,263.471 z"
     id="path1918"
     style="fill:#000000;fill-opacity:0.75;fill-rule:nonzero;stroke:none;stroke-width:1pt;stroke-linecap:butt;stroke-linejoin:miter;stroke-opacity:1" />
  <path
     d="M 23.821496,394.74836 C 24.964599,394.25986 29.282827,392.41449 31.972496,391.26508 C 34.349867,390.24913 36.727244,389.23317 39.104623,388.21721 C 41.681709,387.11591 44.426209,386.38332 46.82809,385.3569 C 49.03406,384.41419 52.936949,383.62683 55.14291,382.68412 C 57.380187,381.72804 62.186711,381.43503 64.640447,380.38645 C 66.086215,379.76861 72.963914,378.12094 75.238758,378.05862 C 76.862921,377.36455 81.681511,376.04838 84.226841,375.97865 C 86.871931,374.84829 91.702291,374.5451 94.233811,373.46327 C 97.025601,372.27021 103.27819,372.23976 105.9329,371.10528 C 106.50961,371.28819 115.53072,369.64528 116.61314,369.18272 C 120.80954,369.06774 123.23713,367.1675 127.80279,367.04243 C 129.49719,366.31834 135.86355,365.19162 138.48303,365.11985 C 140.92645,364.07567 147.07305,364.09051 149.67269,362.97958 C 150.85943,362.47242 157.5168,360.91606 158.15134,361.11731 C 160.7599,360.00256 164.21724,360.28611 166.62999,359.25504 C 168.96694,358.25637 171.09514,358.22741 173.92594,357.01769 C 174.655,356.70612 181.18694,355.14851 181.89515,355.37312 C 184.00836,354.47005 188.01361,353.63895 189.70054,352.91806 C 192.20235,351.84893 194.81532,351.17254 197.424,350.05774 C 199.73682,349.99438 204.60629,348.30921 205.82075,347.79023 C 208.18521,347.72545 212.91142,346.5211 214.2994,345.92796 C 216.89102,345.85696 222.14642,344.33561 223.79692,343.63028 C 226.14661,343.56591 231.13189,341.81651 232.7031,341.14506 C 236.69808,341.03562 238.58153,338.94653 243.30141,338.81723 C 246.05216,337.64172 250.68687,337.42214 253.30838,336.30185 C 255.80303,335.23578 261.2403,335.55374 263.9886,334.37928 C 268.73691,334.24919 272.355,333.33508 277.03423,333.2069 C 278.83189,332.43867 285.81125,332.5379 287.28693,331.90728 C 289.49627,331.84675 295.21338,330.28099 296.27502,329.82731 C 299.94627,329.72673 303.29616,329.02372 307.71043,328.90279 C 308.31452,328.64463 318.18723,328.43279 319.30965,328.78877 C 321.43116,328.73065 328.61814,330.09395 328.95305,329.95083 C 332.80063,331.1711 328.61403,332.49823 330.70915,333.1627 C 328.12351,334.26766 327.6278,335.36001 325.26917,336.36797 C 324.02614,336.89917 322.81443,338.29749 320.33862,339.35551 C 318.96396,339.94297 316.47842,341.4454 314.30729,342.37323 C 311.78972,343.44909 308.86396,344.25914 306.58381,345.23355 C 304.8695,345.96614 300.47926,346.08125 298.10516,347.09581 C 295.7608,347.16003 290.17417,348.72403 288.60763,349.39348 C 286.84823,349.44168 280.88866,350.93111 279.61955,351.47345 C 277.24954,352.48626 272.49203,352.75831 270.12202,353.77112 C 268.19756,354.59353 261.94077,355.82899 258.93236,355.91141 C 256.38545,356.99981 251.63987,356.82651 249.35292,357.80383 C 247.03516,357.86732 240.15343,359.09362 238.6727,359.7264 C 236.81438,360.52054 231.61543,360.98125 229.17517,362.02408 C 225.49797,362.5901 220.77265,364.08801 216.88472,364.19451 C 214.49079,365.21754 208.66074,365.06742 206.20449,366.11709 C 203.54122,366.19005 200.24566,368.2233 198.48102,368.97741 C 196.61746,369.77379 192.32422,368.96693 189.83854,370.02916 C 187.37777,371.08077 183.62898,371.36201 180.93237,372.51439 C 178.47885,373.56289 174.96464,374.18415 172.61754,375.18716 C 170.17314,376.23176 165.62648,376.41371 163.12002,377.48483 C 161.0498,377.54155 155.02216,379.18437 154.13194,379.5648 C 151.65777,380.62212 146.61566,380.57554 144.04305,381.67493 C 140.58082,381.76977 137.82381,383.27154 133.87226,383.3798 C 131.22829,384.50968 125.33129,384.82844 123.78339,385.48992 C 122.65647,385.9715 114.53114,387.48611 113.6126,387.1948 C 110.9737,388.32251 106.03835,388.23031 103.52372,389.30492 C 102.34583,388.93135 95.473971,390.95168 93.352931,391.00979 C 91.008641,392.01161 86.294251,392.26524 83.855411,393.30747 C 81.922911,394.1333 76.202861,395.18185 73.257096,395.6353 C 71.702719,395.14232 65.577343,397.37165 64.105185,396.90475 C 61.856177,397.86586 57.69188,397.88441 55.62653,398.76702 C 51.315314,398.88512 49.876617,399.73953 44.782476,399.87909 C 43.971435,400.22568 36.369025,400.24494 34.793464,399.74525 C 32.853687,400.5742 27.416565,398.54346 25.5776,397.96023 C 21.209077,396.57475 19.60209,396.5515 23.821496,394.74836 z"
     id="path1919"
     style="fill:#000000;fill-opacity:0.06666667;fill-rule:evenodd;stroke:none;stroke-width:1pt;stroke-linecap:butt;stroke-linejoin:miter;stroke-opacity:1" />
  <path
     d="M 8.673144,383.69718 C 4.787379,406.40646 10.705886,409.47906 22.865146,388.03425 C 17.38687,387.58971 10.746622,384.89761 8.673144,383.69718 z"
     id="path1909"
     sodipodi:nodetypes="ccc"
     style="fill:#929292;fill-rule:evenodd;stroke:#000000;stroke-width:4.6242795" />
  <path
     d="M 156.16198,460.91448 C 156.16198,460.91448 125.76749,485.57313 93.587461,497.45496 C 93.614101,499.18475 103.96524,504.59115 104.94936,506.37667 C 128.33813,504.31145 170.51923,511.41243 170.51923,511.41243 L 236.36453,490.12409 L 227.94822,450.02277 L 156.16198,460.91448 z"
     id="path849"
     sodipodi:nodetypes="ccccccc"
     style="fill:url(#linearGradient878);fill-opacity:1;fill-rule:evenodd;stroke:#000000;stroke-width:0.48635831pt;stroke-linecap:butt;stroke-linejoin:miter;stroke-opacity:1" />
  <path
     d="M 495.23589,379.8821 L 156.36558,461.09895 C 156.36558,461.09895 246.33426,455.14773 167.21784,485.60407 C 252.98563,477.90244 172.46893,510.45921 169.66834,511.50945 C 183.67125,508.70886 509.41382,427.84205 509.41382,427.84205 C 509.41382,427.84205 513.4397,396.68559 495.23589,379.8821 z"
     id="path848"
     sodipodi:nodetypes="cccccc"
     style="fill:url(#linearGradient874);fill-opacity:1;fill-rule:evenodd;stroke:#000000;stroke-width:0.48635831pt;stroke-linecap:butt;stroke-linejoin:miter;stroke-opacity:1" />
  <path
     d="M 499.99326,391.97495 C 492.5671,394.45034 220.7696,459.18173 202.45173,464.62758"
     id="path855"
     sodipodi:nodetypes="cc"
     style="fill:none;fill-opacity:0.75;fill-rule:evenodd;stroke:#000000;stroke-width:1.8238436;stroke-linecap:round;stroke-linejoin:miter;stroke-opacity:0.18333327" />
  <path
     d="M 116.86521,486.84418 C 116.86521,494.39412 123.85817,501.01579 125.71471,506.33786 C 120.14509,506.0903 105.78785,505.78088 105.169,506.58542 C 102.01288,503.18174 94.524831,499.96375 93.720331,497.42646 C 101.08461,494.70354 105.41654,492.66132 116.86521,486.84418 z"
     id="path854"
     sodipodi:nodetypes="ccccc"
     style="fill:#000000;fill-opacity:1;fill-rule:evenodd;stroke:#000000;stroke-width:0.48635831pt;stroke-linecap:butt;stroke-linejoin:miter;stroke-opacity:1" />
  <path
     d="M 543.06101,420.23389 C 547.08684,392.57815 532.20875,373.4992 529.05808,372.27394 C 527.48276,371.5738 560.03954,361.07162 563.54025,364.39731 C 570.71671,365.62256 587.69528,391.3529 578.06826,412.18223 C 576.49294,417.08324 546.21164,420.05886 543.06101,420.23389 z"
     id="path857"
     sodipodi:nodetypes="ccccc"
     style="fill:url(#radialGradient867);fill-opacity:1;fill-rule:evenodd;stroke:#000000;stroke-width:0.48635831pt;stroke-linecap:butt;stroke-linejoin:miter;stroke-opacity:1" />
  <path
     d="M 509.23883,427.84205 C 513.26466,400.18632 498.38657,381.10736 495.23589,379.8821 C 493.66058,379.18196 528.14275,371.65539 529.71807,372.00547 C 531.29338,372.35554 550.89746,399.66121 544.24607,419.79039 C 535.31921,423.29111 512.38946,427.66702 509.23883,427.84205 z"
     id="path856"
     sodipodi:nodetypes="ccccc"
     style="fill:url(#linearGradient1884);fill-opacity:1;fill-rule:evenodd;stroke:#000000;stroke-width:0.48635831pt;stroke-linecap:butt;stroke-linejoin:miter;stroke-opacity:1" />
  <path
     d="M 519.30134,425.88777 C 523.63324,399.64866 506.42928,378.23656 506.42928,378.23656"
     id="path862"
     sodipodi:nodetypes="cc"
     style="fill:none;fill-opacity:0.75;fill-rule:evenodd;stroke:#000000;stroke-width:0.48635831pt;stroke-linecap:butt;stroke-linejoin:miter;stroke-opacity:0.26666667" />
  <path
     d="M 534.75061,422.85542 C 539.08251,396.61631 521.87855,374.70913 521.87855,374.70913"
     id="path863"
     sodipodi:nodetypes="cc"
     style="fill:none;fill-opacity:0.75;fill-rule:evenodd;stroke:#000000;stroke-width:0.48635831pt;stroke-linecap:butt;stroke-linejoin:miter;stroke-opacity:0.26666667" />
  <path
     d="M 508.20026,377.9648 C 524.87374,399.95633 521.51792,423.07747 521.39414,423.94385"
     id="path864"
     sodipodi:nodetypes="cc"
     style="fill:none;fill-opacity:0.75;fill-rule:evenodd;stroke:#ffffff;stroke-width:2.43179154;stroke-linecap:round;stroke-opacity:1" />
  <path
     d="M 523.86197,374.46871 C 540.04034,397.57416 537.05585,419.33384 536.93207,420.57153"
     id="path866"
     sodipodi:nodetypes="cc"
     style="fill:none;fill-opacity:0.75;fill-rule:evenodd;stroke:#ffffff;stroke-width:2.43179154;stroke-linecap:round;stroke-opacity:1" />
  <path
     d="M 506.42928,415.67679 C 499.00313,418.15218 227.20563,482.88357 208.88776,488.32942"
     id="path873"
     sodipodi:nodetypes="cc"
     style="fill:none;fill-opacity:0.75;fill-rule:evenodd;stroke:#000000;stroke-width:1.8238436;stroke-linecap:round;stroke-linejoin:miter;stroke-opacity:0.18333327" />
</svg>
